<?xml version="1.0" encoding="UTF-8"?>
<svg xmlns="http://www.w3.org/2000/svg" version="1.1" viewBox="0 0 1000 1000">
  <defs>
    <style>
      .cls-1 {
        fill: #fff;
      }

      .cls-2 {
        fill: #c77ba3;
      }
    </style>
  </defs>
  <!-- Generator: Adobe Illustrator 28.6.0, SVG Export Plug-In . SVG Version: 1.2.0 Build 709)  -->
  <g>
    <g id="Ebene_1">
      <g id="Ebene_1-2" data-name="Ebene_1">
        <rect class="cls-2" x="-253" y="-152" width="1588" height="1349"/>
        <g>
          <path class="cls-1" d="M408.2,627.6c0-7.8,6.3-14.1,14.1-14.1h84.8c7.8,0,14.1,6.3,14.1,14.1s-6.3,14.1-14.1,14.1h-84.8c-7.8,0-14.1-6.3-14.1-14.1M323.4,502.2c0-36.8,34.9-64.9,71.5-61.5,46.4,4.3,93.2,4.3,139.6,0,36.6-3.4,71.5,24.7,71.5,61.5v32.7c.3,12.9-8.9,24.1-21.6,26.4-23.9,4.2-66.1,9.8-119.7,9.8s-95.8-5.7-119.7-9.8c-12.7-2.3-21.9-13.5-21.6-26.4v-32.7ZM451.8,478.9c-2.2-.4-4.5.3-6.1,1.9l-26,25.4c-17.7-1.1-35.3-2.8-52.9-5.2-3.9-.4-7.3,2.4-7.7,6.3-.4,3.7,2.2,7,5.8,7.7,15.5,2.1,34.8,4.2,57.1,5.5,2,0,3.9-.6,5.3-2l21.3-20.8,23.9,48.3c1.7,3.5,6,4.9,9.5,3.2.7-.4,1.4-.8,1.9-1.4l26.3-27.4c18.2-1.1,36.3-2.8,54.3-5.3,3.8-.7,6.4-4.3,5.7-8.2-.6-3.6-4-6.2-7.7-5.8-15.2,2.1-34.1,4.1-55.9,5.3-1.8,0-3.5.9-4.7,2.1l-21.3,22.2-23.8-48c-1-2-2.9-3.4-5.1-3.8"/>
          <path class="cls-1" d="M478.8,327.2c13.5-7.8,18.1-25.1,10.3-38.6-7.8-13.5-25.1-18.1-38.6-10.3-13.5,7.8-18.1,25.1-10.3,38.6,2.5,4.3,6,7.9,10.3,10.3v32h-56.5c-70.2,0-127.1,56.9-127.1,127.1v14.1c-15.6,0-28.3,12.7-28.3,28.3v56.5c0,15.6,12.7,28.3,28.3,28.3v28.3c0,31.2,25.3,56.5,56.5,56.5h282.5c31.2,0,56.5-25.3,56.5-56.5v-28.3c15.6,0,28.3-12.7,28.3-28.3v-56.5c0-15.6-12.7-28.3-28.3-28.3v-14.1c0-70.2-56.9-127.1-127.1-127.1h-56.5v-32ZM634.2,486.4v155.4c0,15.6-12.7,28.3-28.3,28.3h-282.5c-15.6,0-28.3-12.7-28.3-28.3v-155.4c0-54.6,44.3-98.9,98.9-98.9h141.3c54.6,0,98.9,44.3,98.9,98.9"/>
        </g>
      </g>
    </g>
  </g>
</svg>